{
    "asset" : {
        "generator" : "Khronos glTF Blender I/O v1.6.16",
        "version" : "2.0"
    },
    "scene" : 0,
    "scenes" : [
        {
            "name" : "Scene",
            "nodes" : [
                0
            ]
        }
    ],
    "nodes" : [
        {
            "mesh" : 0,
            "name" : "Wall"
        }
    ],
    "materials" : [
        {
            "doubleSided" : true,
            "name" : "girder",
            "pbrMetallicRoughness" : {
                "baseColorFactor" : [
                    0.800000011920929,
                    0.800000011920929,
                    0.800000011920929,
                    1
                ],
                "roughnessFactor" : 0.3852941393852234
            }
        },
        {
            "name" : "glass",
            "pbrMetallicRoughness" : {
                "baseColorFactor" : [
                    0.4751462936401367,
                    0.5725223422050476,
                    0.5725223422050476,
                    1
                ],
                "metallicFactor" : 0.3897058367729187,
                "roughnessFactor" : 0.13235294818878174
            }
        },
        {
            "doubleSided" : true,
            "name" : "black",
            "pbrMetallicRoughness" : {
                "baseColorFactor" : [
                    0,
                    0,
                    0,
                    1
                ],
                "metallicFactor" : 0
            }
        },
        {
            "doubleSided" : true,
            "name" : "frame",
            "pbrMetallicRoughness" : {
                "baseColorFactor" : [
                    0.19017665088176727,
                    0.19017665088176727,
                    0.19017665088176727,
                    1
                ],
                "roughnessFactor" : 0.7279411554336548
            }
        }
    ],
    "meshes" : [
        {
            "name" : "WallPanel",
            "primitives" : [
                {
                    "attributes" : {
                        "POSITION" : 0,
                        "NORMAL" : 1,
                        "TEXCOORD_0" : 2
                    },
                    "indices" : 3,
                    "material" : 0
                },
                {
                    "attributes" : {
                        "POSITION" : 4,
                        "NORMAL" : 5,
                        "TEXCOORD_0" : 6
                    },
                    "indices" : 7,
                    "material" : 1
                },
                {
                    "attributes" : {
                        "POSITION" : 8,
                        "NORMAL" : 9,
                        "TEXCOORD_0" : 10
                    },
                    "indices" : 11,
                    "material" : 2
                },
                {
                    "attributes" : {
                        "POSITION" : 12,
                        "NORMAL" : 13,
                        "TEXCOORD_0" : 14
                    },
                    "indices" : 15,
                    "material" : 3
                }
            ]
        }
    ],
    "accessors" : [
        {
            "bufferView" : 0,
            "componentType" : 5126,
            "count" : 118,
            "max" : [
                4,
                4.099999904632568,
                6.039832101123466e-07
            ],
            "min" : [
                -4.000000476837158,
                -3.5,
                -4.100000381469727
            ],
            "type" : "VEC3"
        },
        {
            "bufferView" : 1,
            "componentType" : 5126,
            "count" : 118,
            "type" : "VEC3"
        },
        {
            "bufferView" : 2,
            "componentType" : 5126,
            "count" : 118,
            "type" : "VEC2"
        },
        {
            "bufferView" : 3,
            "componentType" : 5123,
            "count" : 186,
            "type" : "SCALAR"
        },
        {
            "bufferView" : 4,
            "componentType" : 5126,
            "count" : 10,
            "max" : [
                2.1999995708465576,
                1.600000023841858,
                -3.1999998092651367
            ],
            "min" : [
                -2.200000524520874,
                -1.600000023841858,
                -3.200000286102295
            ],
            "type" : "VEC3"
        },
        {
            "bufferView" : 5,
            "componentType" : 5126,
            "count" : 10,
            "type" : "VEC3"
        },
        {
            "bufferView" : 6,
            "componentType" : 5126,
            "count" : 10,
            "type" : "VEC2"
        },
        {
            "bufferView" : 7,
            "componentType" : 5123,
            "count" : 24,
            "type" : "SCALAR"
        },
        {
            "bufferView" : 8,
            "componentType" : 5126,
            "count" : 4,
            "max" : [
                4,
                -3,
                6.039832101123466e-07
            ],
            "min" : [
                -4.000000476837158,
                -3.5,
                -3.0000007152557373
            ],
            "type" : "VEC3"
        },
        {
            "bufferView" : 9,
            "componentType" : 5126,
            "count" : 4,
            "type" : "VEC3"
        },
        {
            "bufferView" : 10,
            "componentType" : 5126,
            "count" : 4,
            "type" : "VEC2"
        },
        {
            "bufferView" : 11,
            "componentType" : 5123,
            "count" : 6,
            "type" : "SCALAR"
        },
        {
            "bufferView" : 12,
            "componentType" : 5126,
            "count" : 118,
            "max" : [
                2.799999713897705,
                2.200000047683716,
                -3.1999998092651367
            ],
            "min" : [
                -2.8000006675720215,
                -2.200000047683716,
                -4.000000476837158
            ],
            "type" : "VEC3"
        },
        {
            "bufferView" : 13,
            "componentType" : 5126,
            "count" : 118,
            "type" : "VEC3"
        },
        {
            "bufferView" : 14,
            "componentType" : 5126,
            "count" : 118,
            "type" : "VEC2"
        },
        {
            "bufferView" : 15,
            "componentType" : 5123,
            "count" : 180,
            "type" : "SCALAR"
        }
    ],
    "bufferViews" : [
        {
            "buffer" : 0,
            "byteLength" : 1416,
            "byteOffset" : 0
        },
        {
            "buffer" : 0,
            "byteLength" : 1416,
            "byteOffset" : 1416
        },
        {
            "buffer" : 0,
            "byteLength" : 944,
            "byteOffset" : 2832
        },
        {
            "buffer" : 0,
            "byteLength" : 372,
            "byteOffset" : 3776
        },
        {
            "buffer" : 0,
            "byteLength" : 120,
            "byteOffset" : 4148
        },
        {
            "buffer" : 0,
            "byteLength" : 120,
            "byteOffset" : 4268
        },
        {
            "buffer" : 0,
            "byteLength" : 80,
            "byteOffset" : 4388
        },
        {
            "buffer" : 0,
            "byteLength" : 48,
            "byteOffset" : 4468
        },
        {
            "buffer" : 0,
            "byteLength" : 48,
            "byteOffset" : 4516
        },
        {
            "buffer" : 0,
            "byteLength" : 48,
            "byteOffset" : 4564
        },
        {
            "buffer" : 0,
            "byteLength" : 32,
            "byteOffset" : 4612
        },
        {
            "buffer" : 0,
            "byteLength" : 12,
            "byteOffset" : 4644
        },
        {
            "buffer" : 0,
            "byteLength" : 1416,
            "byteOffset" : 4656
        },
        {
            "buffer" : 0,
            "byteLength" : 1416,
            "byteOffset" : 6072
        },
        {
            "buffer" : 0,
            "byteLength" : 944,
            "byteOffset" : 7488
        },
        {
            "buffer" : 0,
            "byteLength" : 360,
            "byteOffset" : 8432
        }
    ],
    "buffers" : [
        {
            "byteLength" : 8792,
            "uri" : "data:application/octet-stream;base64,"
        }
    ]
}
