{
    "asset" : {
        "generator" : "Khronos glTF Blender I/O v1.6.16",
        "version" : "2.0"
    },
    "scene" : 0,
    "scenes" : [
        {
            "name" : "Scene",
            "nodes" : [
                0
            ]
        }
    ],
    "nodes" : [
        {
            "mesh" : 0,
            "name" : "Walls"
        }
    ],
    "materials" : [
        {
            "name" : "girder",
            "pbrMetallicRoughness" : {
                "baseColorFactor" : [
                    0.800000011920929,
                    0.800000011920929,
                    0.800000011920929,
                    1
                ],
                "roughnessFactor" : 0.3852941393852234
            }
        },
        {
            "name" : "frame",
            "pbrMetallicRoughness" : {
                "baseColorFactor" : [
                    0.19017665088176727,
                    0.19017665088176727,
                    0.19017665088176727,
                    1
                ],
                "roughnessFactor" : 0.7279411554336548
            }
        }
    ],
    "meshes" : [
        {
            "name" : "Cube.005",
            "primitives" : [
                {
                    "attributes" : {
                        "POSITION" : 0,
                        "NORMAL" : 1,
                        "TEXCOORD_0" : 2
                    },
                    "indices" : 3,
                    "material" : 0
                },
                {
                    "attributes" : {
                        "POSITION" : 4,
                        "NORMAL" : 5,
                        "TEXCOORD_0" : 6
                    },
                    "indices" : 7,
                    "material" : 1
                }
            ]
        }
    ],
    "accessors" : [
        {
            "bufferView" : 0,
            "componentType" : 5126,
            "count" : 90,
            "max" : [
                2.200000047683716,
                1.600000262260437,
                8
            ],
            "min" : [
                -2.200000047683716,
                -1.5999997854232788,
                0
            ],
            "type" : "VEC3"
        },
        {
            "bufferView" : 1,
            "componentType" : 5126,
            "count" : 90,
            "type" : "VEC3"
        },
        {
            "bufferView" : 2,
            "componentType" : 5126,
            "count" : 90,
            "type" : "VEC2"
        },
        {
            "bufferView" : 3,
            "componentType" : 5123,
            "count" : 168,
            "type" : "SCALAR"
        },
        {
            "bufferView" : 4,
            "componentType" : 5126,
            "count" : 136,
            "max" : [
                2.1500003337860107,
                0.6000000238418579,
                7.300000190734863
            ],
            "min" : [
                -2.1500000953674316,
                -0.6000000238418579,
                0.699999988079071
            ],
            "type" : "VEC3"
        },
        {
            "bufferView" : 5,
            "componentType" : 5126,
            "count" : 136,
            "type" : "VEC3"
        },
        {
            "bufferView" : 6,
            "componentType" : 5126,
            "count" : 136,
            "type" : "VEC2"
        },
        {
            "bufferView" : 7,
            "componentType" : 5123,
            "count" : 252,
            "type" : "SCALAR"
        }
    ],
    "bufferViews" : [
        {
            "buffer" : 0,
            "byteLength" : 1080,
            "byteOffset" : 0
        },
        {
            "buffer" : 0,
            "byteLength" : 1080,
            "byteOffset" : 1080
        },
        {
            "buffer" : 0,
            "byteLength" : 720,
            "byteOffset" : 2160
        },
        {
            "buffer" : 0,
            "byteLength" : 336,
            "byteOffset" : 2880
        },
        {
            "buffer" : 0,
            "byteLength" : 1632,
            "byteOffset" : 3216
        },
        {
            "buffer" : 0,
            "byteLength" : 1632,
            "byteOffset" : 4848
        },
        {
            "buffer" : 0,
            "byteLength" : 1088,
            "byteOffset" : 6480
        },
        {
            "buffer" : 0,
            "byteLength" : 504,
            "byteOffset" : 7568
        }
    ],
    "buffers" : [
        {
            "byteLength" : 8072,
            "uri" : "data:application/octet-stream;base64,"
        }
    ]
}
