{
    "asset" : {
        "generator" : "Khronos glTF Blender I/O v1.6.16",
        "version" : "2.0"
    },
    "scene" : 0,
    "scenes" : [
        {
            "name" : "Scene",
            "nodes" : [
                0,
                1
            ]
        }
    ],
    "nodes" : [
        {
            "name" : "BracePath"
        },
        {
            "mesh" : 0,
            "name" : "Brace"
        }
    ],
    "materials" : [
        {
            "doubleSided" : true,
            "name" : "brace",
            "pbrMetallicRoughness" : {
                "baseColorFactor" : [
                    0.8209954500198364,
                    0.9643102884292603,
                    1,
                    1
                ],
                "roughnessFactor" : 0.30882349610328674
            }
        }
    ],
    "meshes" : [
        {
            "name" : "Cube.006",
            "primitives" : [
                {
                    "attributes" : {
                        "POSITION" : 0,
                        "NORMAL" : 1,
                        "TEXCOORD_0" : 2
                    },
                    "indices" : 3,
                    "material" : 0
                }
            ]
        }
    ],
    "accessors" : [
        {
            "bufferView" : 0,
            "componentType" : 5126,
            "count" : 6136,
            "max" : [
                2.7995386123657227,
                1.999882459640503,
                0.2999998927116394
            ],
            "min" : [
                -2.799846649169922,
                -2.000000238418579,
                -0.3000003695487976
            ],
            "type" : "VEC3"
        },
        {
            "bufferView" : 1,
            "componentType" : 5126,
            "count" : 6136,
            "type" : "VEC3"
        },
        {
            "bufferView" : 2,
            "componentType" : 5126,
            "count" : 6136,
            "type" : "VEC2"
        },
        {
            "bufferView" : 3,
            "componentType" : 5123,
            "count" : 9216,
            "type" : "SCALAR"
        }
    ],
    "bufferViews" : [
        {
            "buffer" : 0,
            "byteLength" : 73632,
            "byteOffset" : 0
        },
        {
            "buffer" : 0,
            "byteLength" : 73632,
            "byteOffset" : 73632
        },
        {
            "buffer" : 0,
            "byteLength" : 49088,
            "byteOffset" : 147264
        },
        {
            "buffer" : 0,
            "byteLength" : 18432,
            "byteOffset" : 196352
        }
    ],
    "buffers" : [
        {
            "byteLength" : 214784,
            "uri" : "data:application/octet-stream;base64,"
        }
    ]
}
